<svg width="25" height="18" viewBox="0 0 25 18" fill="none" xmlns="http://www.w3.org/2000/svg">
<path d="M2.13636 18.0022H5.95456V8.72949L3.45434 4.36365L0.5 4.63857V16.3659C0.5 17.2699 1.23228 18.0022 2.13636 18.0022Z" fill="#0085F7"/>
<path d="M19.0447 18.0022H22.8629C23.767 18.0022 24.4992 17.2699 24.4992 16.3659V4.63857L21.5492 4.36365L19.0447 8.72949V18.0022H19.0447Z" fill="#00A94B"/>
<path d="M19.0453 1.63856L16.8025 5.91839L19.0453 8.72948L24.4999 4.63856V2.45676C24.4999 0.434483 22.1912 -0.720517 20.5726 0.493124L19.0453 1.63856Z" fill="#FFBC00"/>
<path fill-rule="evenodd" clip-rule="evenodd" d="M5.95407 8.72948L3.81689 4.21494L5.95407 1.63855L12.4995 6.54763L19.0449 1.63855V8.72948L12.4995 13.6386L5.95407 8.72948Z" fill="#FF4131"/>
<path d="M0.5 2.45676V4.63856L5.95456 8.72948V1.63856L4.42728 0.493124C2.80864 -0.720517 0.5 0.434483 0.5 2.45676H0.5Z" fill="#E51C19"/>
</svg>
