<?xml version="1.0" standalone="no"?>
<!DOCTYPE svg PUBLIC "-//W3C//DTD SVG 20010904//EN"
 "http://www.w3.org/TR/2001/REC-SVG-20010904/DTD/svg10.dtd">
<svg version="1.0" xmlns="http://www.w3.org/2000/svg"
 width="474.000000pt" height="474.000000pt" viewBox="0 0 474.000000 474.000000"
 preserveAspectRatio="xMidYMid meet">

<g transform="translate(0.000000,474.000000) scale(0.100000,-0.100000)"
fill="#000000" stroke="none">
<path d="M1793 3428 c-11 -13 -23 -31 -26 -40 -4 -10 -11 -18 -16 -18 -6 0
-17 -13 -26 -30 -9 -17 -11 -30 -5 -30 5 0 10 -5 10 -11 0 -6 -6 -9 -13 -6
-14 5 -22 -5 -72 -98 -24 -42 -28 -62 -29 -133 l-1 -83 -50 -49 c-27 -27 -54
-49 -58 -50 -9 0 -31 -17 -54 -42 -9 -9 -20 -15 -24 -12 -4 2 -40 -6 -79 -20
-39 -13 -66 -26 -60 -28 6 -2 -24 -2 -67 0 -43 2 -98 10 -122 17 -24 8 -47 12
-52 9 -5 -3 -6 3 -2 12 4 12 3 15 -5 10 -7 -4 -12 -2 -12 4 0 6 -15 17 -32 25
-18 8 -29 14 -24 15 12 0 -32 38 -64 55 -39 20 -129 27 -199 16 -49 -8 -71
-17 -91 -38 -28 -29 -64 -102 -55 -111 3 -3 5 0 5 6 0 7 5 12 12 12 6 0 2 -10
-9 -22 -21 -24 -39 -78 -26 -78 5 0 28 21 52 46 86 90 205 111 259 45 7 -9 30
-43 52 -76 42 -65 55 -76 128 -103 66 -26 206 -22 279 7 113 44 294 157 409
254 67 56 139 97 172 97 11 0 7 -7 -12 -22 -63 -50 -181 -152 -188 -162 -15
-22 -8 -36 18 -36 14 0 94 15 177 34 84 19 193 42 242 51 111 20 125 27 108
55 -7 11 -13 21 -13 23 0 2 29 -10 65 -27 57 -26 66 -34 71 -64 6 -30 14 -37
61 -58 l54 -24 57 50 c43 37 58 46 60 33 2 -8 -1 -19 -8 -23 -7 -5 -8 -10 -2
-14 5 -3 12 -27 16 -53 6 -47 7 -48 63 -70 l57 -23 36 35 36 35 2 -31 c4 -52
33 -89 93 -119 l56 -28 33 31 c22 21 28 32 20 37 -9 5 -11 25 -8 60 3 28 2 48
-1 43 -14 -16 -32 -83 -26 -93 10 -16 -12 -12 -29 5 -8 8 -21 15 -29 15 -22 0
-46 33 -53 71 -3 19 -7 44 -10 56 -3 17 0 21 11 17 19 -7 19 -2 1 40 -18 44
-52 66 -101 66 l-40 -1 27 -20 c15 -11 25 -26 22 -33 -3 -8 0 -17 7 -22 8 -4
10 -3 5 4 -4 7 -3 12 2 12 5 0 12 -11 14 -25 3 -14 1 -22 -4 -19 -6 4 -8 -2
-6 -12 2 -11 -4 -24 -17 -32 -17 -12 -18 -13 -1 -7 16 5 17 3 6 -10 -10 -12
-15 -13 -21 -4 -8 13 -1 39 11 39 4 0 5 11 2 25 -2 14 -8 25 -13 25 -5 0 -9
-11 -9 -25 0 -14 -5 -25 -11 -25 -7 0 -9 -10 -5 -27 4 -16 3 -23 -1 -17 -4 6
-23 19 -41 29 -29 17 -32 23 -27 55 4 24 3 29 -3 16 -7 -15 -10 -16 -14 -5 -6
17 16 72 25 63 15 -15 6 49 -10 77 -16 26 -57 49 -90 49 -11 0 -11 -4 -2 -22
7 -13 18 -27 25 -31 16 -9 19 -57 4 -57 -5 0 -10 -7 -10 -15 0 -16 -34 -38
-44 -28 -11 11 -7 31 10 47 14 15 14 16 0 16 -9 0 -16 -6 -16 -13 0 -7 -9 -18
-21 -25 -14 -9 -19 -20 -16 -34 5 -18 4 -19 -12 -4 -10 9 -22 16 -27 16 -5 0
-2 -5 6 -10 8 -5 11 -10 5 -10 -28 0 -60 57 -50 89 2 9 0 23 -6 31 -8 11 -9 9
-4 -10 5 -16 4 -21 -2 -15 -11 11 -43 113 -47 148 -2 13 -7 30 -11 38 -8 12
-6 12 8 0 9 -7 17 -20 17 -27 0 -20 18 -17 25 5 8 26 -1 43 -38 68 -52 37
-110 62 -152 66 -21 2 -42 10 -45 18 -33 71 -34 72 -125 108 -50 20 -100 46
-112 58 -18 18 -78 43 -104 43 -3 0 -15 -10 -26 -22z m287 -188 c0 -5 -5 -10
-11 -10 -5 0 -7 5 -4 10 3 6 8 10 11 10 2 0 4 -4 4 -10z m-392 -25 c-6 -14
-13 -24 -14 -22 -6 6 9 47 17 47 5 0 3 -11 -3 -25z m495 -47 c19 -46 31 -155
17 -163 -6 -4 -10 4 -10 20 0 14 -4 24 -8 21 -4 -2 -8 12 -8 32 0 20 -3 56 -6
80 -8 50 -3 54 15 10z m57 22 c0 -5 -5 -10 -11 -10 -5 0 -7 5 -4 10 3 6 8 10
11 10 2 0 4 -4 4 -10z m-205 -60 c3 -5 1 -10 -4 -10 -6 0 -11 5 -11 10 0 6 2
10 4 10 3 0 8 -4 11 -10z m205 -4 c0 -3 -4 -8 -10 -11 -5 -3 -10 -1 -10 4 0 6
5 11 10 11 6 0 10 -2 10 -4z m-240 -26 c0 -5 8 -10 17 -10 18 0 8 -15 -10 -15
-7 -1 -11 -6 -10 -12 1 -6 -7 -13 -17 -16 -21 -5 -27 7 -10 18 6 3 10 15 10
26 0 10 5 19 10 19 6 0 10 -4 10 -10z m-350 -78 c0 -5 -7 -17 -15 -28 -14 -18
-14 -17 -4 9 12 27 19 34 19 19z m455 -62 c16 -7 13 -9 -15 -9 -19 0 -44 4
-55 9 -16 7 -13 9 15 9 19 0 44 -4 55 -9z m-504 -57 c-12 -20 -14 -14 -5 12 4
9 9 14 11 11 3 -2 0 -13 -6 -23z m-834 -9 c-3 -3 -12 -4 -19 -1 -8 3 -5 6 6 6
11 1 17 -2 13 -5z m33 -14 c0 -5 -2 -10 -4 -10 -3 0 -8 5 -11 10 -3 6 -1 10 4
10 6 0 11 -4 11 -10z m830 7 c0 -2 -10 -12 -21 -23 -22 -19 -22 -19 -10 4 10
18 31 31 31 19z m-883 -13 c-3 -3 -12 -4 -19 -1 -8 3 -5 6 6 6 11 1 17 -2 13
-5z m811 -54 c-7 -11 -18 -20 -24 -20 -12 0 -54 -46 -54 -60 0 -5 -7 -6 -17
-3 -11 4 -14 3 -9 -5 4 -7 2 -12 -4 -12 -13 0 -82 -31 -90 -40 -3 -3 -17 -11
-32 -17 -42 -19 -33 1 9 21 49 23 135 81 164 110 20 19 57 45 67 46 1 0 -3 -9
-10 -20z m-471 -36 c-3 -3 -12 -4 -19 -1 -8 3 -5 6 6 6 11 1 17 -2 13 -5z
m-133 -80 c5 -14 4 -15 -9 -4 -17 14 -19 20 -6 20 5 0 12 -7 15 -16z m336 -53
c0 -10 -25 -21 -48 -21 -12 0 -9 4 8 14 31 17 40 19 40 7z m-250 -11 c8 -5 11
-10 5 -10 -5 0 -17 5 -25 10 -8 5 -10 10 -5 10 6 0 17 -5 25 -10z m180 -10 c0
-6 -28 -9 -67 -8 l-68 1 65 7 c36 4 66 7 68 8 1 1 2 -2 2 -8z"/>
<path d="M2120 2779 c0 -5 5 -7 10 -4 6 3 10 8 10 11 0 2 -4 4 -10 4 -5 0 -10
-5 -10 -11z"/>
<path d="M2930 2786 c0 -17 47 -56 66 -56 13 0 26 -4 29 -10 11 -18 14 -50 4
-50 -6 0 -5 -8 2 -21 6 -12 8 -30 6 -41 -4 -15 2 -23 29 -34 38 -16 40 -22 19
-50 -21 -28 -19 -33 21 -50 39 -16 64 -13 64 9 0 7 8 29 19 50 10 20 22 56 25
81 6 40 4 46 -24 70 -52 43 -67 32 -61 -41 1 -13 -3 -23 -9 -23 -5 0 -10 8
-10 18 0 10 -7 28 -16 40 -8 12 -12 22 -9 22 4 0 -3 13 -14 28 -12 18 -36 33
-63 41 -24 7 -51 15 -60 17 -10 3 -18 3 -18 0z m250 -145 c0 -4 -7 -8 -15 -8
-8 0 -15 6 -15 13 0 8 6 11 15 8 8 -4 15 -9 15 -13z m-93 -13 c-3 -8 -6 -5 -6
6 -1 11 2 17 5 13 3 -3 4 -12 1 -19z m96 -21 c11 10 8 -50 -3 -67 -8 -12 -10
-12 -10 5 0 15 -3 17 -9 7 -6 -11 -10 -10 -15 4 -6 14 -9 16 -15 5 -6 -9 -11
-10 -15 -2 -4 6 -2 11 3 11 6 0 11 8 11 17 0 15 2 14 15 -3 14 -18 15 -17 8
11 -5 26 -4 28 9 18 8 -7 18 -10 21 -6z"/>
<path d="M2200 2770 c0 -5 5 -10 11 -10 5 0 7 5 4 10 -3 6 -8 10 -11 10 -2 0
-4 -4 -4 -10z"/>
<path d="M2075 2760 c-3 -5 -1 -10 4 -10 6 0 11 5 11 10 0 6 -2 10 -4 10 -3 0
-8 -4 -11 -10z"/>
<path d="M2155 2740 c3 -5 8 -10 11 -10 2 0 4 5 4 10 0 6 -5 10 -11 10 -5 0
-7 -4 -4 -10z"/>
<path d="M2025 2730 c3 -5 8 -10 11 -10 2 0 4 5 4 10 0 6 -5 10 -11 10 -5 0
-7 -4 -4 -10z"/>
<path d="M2230 2730 c0 -5 5 -10 11 -10 5 0 7 5 4 10 -3 6 -8 10 -11 10 -2 0
-4 -4 -4 -10z"/>
<path d="M1898 2723 c7 -3 16 -2 19 1 4 3 -2 6 -13 5 -11 0 -14 -3 -6 -6z"/>
<path d="M1975 2710 c-3 -5 1 -10 10 -10 9 0 13 5 10 10 -3 6 -8 10 -10 10 -2
0 -7 -4 -10 -10z"/>
<path d="M2310 2710 c0 -5 5 -10 11 -10 5 0 7 5 4 10 -3 6 -8 10 -11 10 -2 0
-4 -4 -4 -10z"/>
<path d="M1845 2700 c3 -5 8 -10 11 -10 2 0 4 5 4 10 0 6 -5 10 -11 10 -5 0
-7 -4 -4 -10z"/>
<path d="M2058 2693 c7 -3 16 -2 19 1 4 3 -2 6 -13 5 -11 0 -14 -3 -6 -6z"/>
<path d="M1928 2683 c7 -3 16 -2 19 1 4 3 -2 6 -13 5 -11 0 -14 -3 -6 -6z"/>
<path d="M2005 2670 c3 -5 11 -10 16 -10 6 0 7 5 4 10 -3 6 -11 10 -16 10 -6
0 -7 -4 -4 -10z"/>
<path d="M2138 2673 c7 -3 16 -2 19 1 4 3 -2 6 -13 5 -11 0 -14 -3 -6 -6z"/>
<path d="M1875 2660 c3 -5 8 -10 11 -10 2 0 4 5 4 10 0 6 -5 10 -11 10 -5 0
-7 -4 -4 -10z"/>
<path d="M2215 2660 c4 -6 11 -8 16 -5 14 9 11 15 -7 15 -8 0 -12 -5 -9 -10z"/>
<path d="M1615 2650 c3 -5 8 -10 11 -10 2 0 4 5 4 10 0 6 -5 10 -11 10 -5 0
-7 -4 -4 -10z"/>
<path d="M2085 2650 c3 -5 8 -10 11 -10 2 0 4 5 4 10 0 6 -5 10 -11 10 -5 0
-7 -4 -4 -10z"/>
<path d="M1828 2633 c7 -3 16 -2 19 1 4 3 -2 6 -13 5 -11 0 -14 -3 -6 -6z"/>
<path d="M2035 2630 c-3 -5 1 -10 10 -10 9 0 13 5 10 10 -3 6 -8 10 -10 10 -2
0 -7 -4 -10 -10z"/>
<path d="M2168 2633 c7 -3 16 -2 19 1 4 3 -2 6 -13 5 -11 0 -14 -3 -6 -6z"/>
<path d="M1910 2620 c0 -5 5 -10 11 -10 5 0 7 5 4 10 -3 6 -8 10 -11 10 -2 0
-4 -4 -4 -10z"/>
<path d="M2245 2620 c3 -5 11 -10 16 -10 6 0 7 5 4 10 -3 6 -11 10 -16 10 -6
0 -7 -4 -4 -10z"/>
<path d="M1640 2616 c0 -2 7 -6 15 -10 8 -3 15 -1 15 4 0 6 -7 10 -15 10 -8 0
-15 -2 -15 -4z"/>
<path d="M1778 2613 c7 -3 16 -2 19 1 4 3 -2 6 -13 5 -11 0 -14 -3 -6 -6z"/>
<path d="M2118 2613 c7 -3 16 -2 19 1 4 3 -2 6 -13 5 -11 0 -14 -3 -6 -6z"/>
<path d="M2325 2600 c3 -5 8 -10 11 -10 2 0 4 5 4 10 0 6 -5 10 -11 10 -5 0
-7 -4 -4 -10z"/>
<path d="M1595 2590 c3 -5 8 -10 11 -10 2 0 4 5 4 10 0 6 -5 10 -11 10 -5 0
-7 -4 -4 -10z"/>
<path d="M2065 2590 c-3 -5 1 -10 10 -10 9 0 13 5 10 10 -3 6 -8 10 -10 10 -2
0 -7 -4 -10 -10z"/>
<path d="M2198 2593 c7 -3 16 -2 19 1 4 3 -2 6 -13 5 -11 0 -14 -3 -6 -6z"/>
<path d="M1940 2580 c0 -5 5 -10 11 -10 5 0 7 5 4 10 -3 6 -8 10 -11 10 -2 0
-4 -4 -4 -10z"/>
<path d="M2280 2580 c0 -5 5 -10 11 -10 5 0 7 5 4 10 -3 6 -8 10 -11 10 -2 0
-4 -4 -4 -10z"/>
<path d="M1545 2570 c3 -5 8 -10 11 -10 2 0 4 5 4 10 0 6 -5 10 -11 10 -5 0
-7 -4 -4 -10z"/>
<path d="M1675 2570 c3 -5 10 -10 16 -10 5 0 9 5 9 10 0 6 -7 10 -16 10 -8 0
-12 -4 -9 -10z"/>
<path d="M1808 2573 c7 -3 16 -2 19 1 4 3 -2 6 -13 5 -11 0 -14 -3 -6 -6z"/>
<path d="M2145 2570 c3 -5 10 -10 16 -10 5 0 9 5 9 10 0 6 -7 10 -16 10 -8 0
-12 -4 -9 -10z"/>
<path d="M2018 2563 c7 -3 16 -2 19 1 4 3 -2 6 -13 5 -11 0 -14 -3 -6 -6z"/>
<path d="M1625 2550 c3 -5 11 -10 16 -10 6 0 7 5 4 10 -3 6 -11 10 -16 10 -6
0 -7 -4 -4 -10z"/>
<path d="M1758 2553 c7 -3 16 -2 19 1 4 3 -2 6 -13 5 -11 0 -14 -3 -6 -6z"/>
<path d="M2100 2550 c0 -5 5 -10 11 -10 5 0 7 5 4 10 -3 6 -8 10 -11 10 -2 0
-4 -4 -4 -10z"/>
<path d="M1970 2540 c0 -5 5 -10 11 -10 5 0 7 5 4 10 -3 6 -8 10 -11 10 -2 0
-4 -4 -4 -10z"/>
<path d="M4286 2520 c4 -19 9 -82 10 -140 1 -58 3 -109 4 -115 9 -44 -23 -161
-38 -140 -9 12 -112 13 -131 1 -11 -7 -11 -10 0 -18 11 -8 10 -9 -4 -4 -10 3
-39 -7 -69 -26 -29 -18 -58 -33 -64 -34 -10 -2 -62 -23 -172 -71 -105 -46
-359 -97 -547 -110 -38 -3 -76 -10 -84 -17 -11 -8 -15 -8 -18 2 -3 8 -24 12
-61 11 -44 -1 -51 -3 -32 -9 36 -12 4 -12 -82 0 -40 5 -104 12 -143 14 -121 9
-427 46 -515 62 -47 9 -94 16 -105 16 -11 0 -34 4 -51 10 -38 11 -180 25 -368
37 -76 5 -143 14 -149 20 -17 17 -31 13 -17 -4 10 -13 9 -15 -8 -15 -12 0 -24
5 -27 10 -9 15 -25 12 -25 -5 0 -17 -12 -19 -26 -5 -7 7 -19 8 -37 1 -19 -8
-27 -7 -31 5 -3 8 -15 14 -26 14 -11 0 -20 5 -20 11 0 5 6 7 13 4 6 -4 3 0 -7
9 -10 8 -24 12 -29 9 -8 -5 -7 -8 1 -11 7 -2 12 -10 12 -17 0 -7 7 -15 15 -19
8 -3 15 -11 15 -17 0 -8 -7 -6 -18 4 -27 24 -45 22 -36 -5 6 -21 6 -21 -10 -5
-10 9 -21 17 -26 17 -5 0 -20 11 -34 25 -29 28 -56 33 -56 9 0 -11 6 -15 20
-11 12 3 18 1 14 -5 -4 -6 0 -15 7 -20 10 -6 6 -7 -11 -2 -14 4 -31 15 -38 25
-16 23 -47 26 -38 4 6 -18 5 -18 -28 -5 -30 11 -32 8 -10 -15 9 -9 14 -18 11
-21 -2 -3 -12 3 -22 12 -14 14 -21 15 -36 6 -12 -8 -26 -9 -41 -3 l-23 9 25
10 c14 5 30 7 35 4 6 -3 4 2 -4 11 -7 9 -20 17 -28 17 -8 0 -13 6 -10 13 5 14
-17 39 -27 30 -10 -10 -7 -35 4 -28 6 3 10 1 10 -4 0 -6 -5 -11 -11 -11 -5 0
-7 -5 -3 -12 4 -6 3 -8 -4 -4 -6 3 -13 2 -16 -3 -3 -5 1 -11 9 -15 20 -7 19
-26 -1 -26 -8 0 -13 4 -9 9 6 11 -33 26 -43 17 -3 -3 3 -13 14 -21 13 -11 8
-10 -18 2 -45 22 -52 47 -10 37 25 -7 26 -6 12 11 -14 17 -13 18 13 11 24 -6
28 -4 25 10 -2 9 -15 26 -31 37 -21 16 -30 18 -39 9 -9 -9 -9 -12 3 -12 8 0
15 -9 15 -20 0 -27 -10 -25 -29 4 -15 22 -14 25 12 50 19 18 34 25 47 20 18
-5 18 -5 2 9 -13 10 -14 17 -6 25 8 8 4 14 -17 22 -15 6 -31 8 -34 4 -3 -4 0
-9 7 -11 10 -4 8 -9 -5 -19 -22 -16 -63 -18 -63 -3 0 7 -11 9 -29 6 -22 -5
-35 0 -54 17 -14 13 -32 26 -39 29 -10 4 -10 8 2 16 13 9 12 12 -5 17 -17 4
-21 14 -23 50 -1 30 2 43 9 38 8 -4 9 1 4 15 -7 24 11 55 27 44 6 -3 8 0 6 8
-7 19 -48 13 -73 -11 -12 -11 -25 -17 -30 -13 -4 5 -5 0 -2 -9 4 -10 2 -18 -4
-18 -6 0 -8 -4 -4 -9 3 -5 1 -12 -4 -15 -4 -3 -9 -17 -9 -32 0 -14 -5 -30 -12
-34 -8 -5 -7 -9 4 -13 9 -4 16 -13 16 -21 0 -8 10 -37 22 -65 19 -41 30 -53
63 -66 22 -8 46 -15 52 -15 6 0 14 -11 17 -24 6 -23 36 -45 36 -25 0 5 -7 12
-15 15 -22 9 -18 24 5 24 11 0 20 -4 20 -9 0 -5 9 -11 20 -14 11 -3 20 -1 20
4 0 5 -4 9 -10 9 -5 0 -10 5 -10 10 0 17 26 11 44 -9 19 -21 13 -46 -10 -37
-8 3 -14 1 -14 -4 0 -6 4 -10 8 -10 17 0 8 -29 -9 -33 -14 -4 -17 0 -14 24 3
25 2 27 -15 17 -15 -10 -17 -15 -7 -27 9 -11 4 -11 -17 3 -22 14 -30 15 -36 6
-4 -7 -13 -9 -19 -5 -7 4 -19 1 -27 -6 -8 -6 -17 -9 -20 -6 -10 10 21 35 41
34 10 -1 20 3 22 9 3 9 -28 11 -47 4 -3 -1 -13 -2 -22 -1 -10 1 -18 -2 -18 -7
0 -5 -13 -12 -30 -14 -24 -4 -27 -2 -19 9 7 7 17 13 24 13 7 0 18 7 25 15 8 9
8 15 2 15 -6 0 -19 3 -29 7 -16 6 -17 5 -4 -13 8 -10 2 -6 -13 9 -29 30 -29
50 0 26 15 -12 17 -12 12 1 -2 8 -19 16 -36 18 -38 4 -41 14 -9 31 13 7 15 9
4 6 -10 -3 -27 -1 -37 5 -13 7 -19 6 -24 -6 -3 -8 -2 -13 3 -10 5 3 11 -1 15
-9 12 -32 -26 -13 -78 39 -52 53 -66 59 -66 28 0 -11 3 -12 13 -4 19 16 40
-18 22 -35 -7 -7 -16 -9 -21 -5 -4 4 -5 0 -2 -8 27 -79 35 -97 50 -111 9 -10
19 -15 21 -12 3 2 16 -1 29 -8 12 -7 27 -12 31 -11 5 1 5 -2 2 -9 -4 -6 -18
-8 -31 -5 -17 5 -24 2 -24 -8 0 -8 -7 -17 -16 -20 -12 -5 -15 -2 -10 9 4 11 2
14 -6 9 -6 -4 -17 1 -25 11 -7 11 -13 15 -13 9 1 -16 36 -52 56 -57 16 -4 16
-5 2 -6 -10 0 -18 -8 -18 -17 0 -23 -16 -8 -54 48 -30 45 -35 48 -44 31 -16
-29 -7 -134 15 -183 37 -84 149 -174 298 -239 83 -37 202 -57 403 -68 l92 -5
6 31 c8 37 13 38 60 6 29 -20 49 -25 98 -25 70 0 81 5 89 41 5 19 15 28 38 33
58 11 92 7 117 -16 21 -20 34 -23 109 -23 72 0 87 3 94 18 28 56 14 52 185 50
88 -1 186 -4 219 -8 55 -6 61 -9 75 -38 17 -37 40 -44 146 -46 57 -1 80 4 122
25 43 22 61 25 97 19 36 -5 48 -12 60 -35 13 -25 21 -29 82 -35 82 -8 154 6
207 42 70 46 185 42 196 -7 5 -22 10 -24 50 -22 25 2 61 7 81 13 35 9 46 17
91 71 19 21 34 27 86 32 60 6 63 5 74 -20 14 -31 31 -28 113 18 35 20 71 51
89 76 34 46 164 134 206 138 14 1 28 3 32 3 18 2 81 68 105 110 15 25 46 68
70 94 23 27 47 65 51 85 5 21 14 58 20 85 7 26 12 84 12 130 0 69 -4 90 -26
132 -35 67 -49 80 -38 35z m-121 -400 c3 -5 1 -10 -4 -10 -6 0 -11 5 -11 10 0
6 2 10 4 10 3 0 8 -4 11 -10z m-3515 -51 c0 -18 -18 -9 -23 12 -4 16 -3 18 9
8 8 -6 14 -15 14 -20z m385 1 c-3 -5 -10 -10 -16 -10 -5 0 -9 5 -9 10 0 6 7
10 16 10 8 0 12 -4 9 -10z m-269 -97 c-7 -7 -46 16 -46 28 0 5 11 2 25 -7 14
-9 24 -19 21 -21z m114 1 c0 -2 -7 -4 -15 -4 -8 0 -15 4 -15 10 0 5 7 7 15 4
8 -4 15 -8 15 -10z m400 7 c0 -5 -9 -7 -20 -4 -11 3 -20 7 -20 9 0 2 9 4 20 4
11 0 20 -4 20 -9z m-450 -16 c0 -1 -9 -5 -19 -8 -13 -3 -18 -1 -14 9 4 10 33
10 33 -1z m110 -5 c0 -5 -2 -10 -4 -10 -3 0 -8 5 -11 10 -3 6 -1 10 4 10 6 0
11 -4 11 -10z m240 6 c0 -11 -19 -15 -25 -6 -3 5 1 10 9 10 9 0 16 -2 16 -4z
m60 -16 c0 -5 -5 -10 -11 -10 -5 0 -7 5 -4 10 3 6 8 10 11 10 2 0 4 -4 4 -10z
m1905 -110 c3 -5 2 -10 -4 -10 -5 0 -13 5 -16 10 -3 6 -2 10 4 10 5 0 13 -4
16 -10z m150 0 c12 -5 -1 -6 -35 -3 -30 3 -57 7 -59 9 -9 8 75 2 94 -6z m-170
-105 c214 -13 201 -18 -40 -15 -82 0 -168 6 -190 12 -22 6 -65 14 -95 19 -41
6 -32 6 35 2 50 -3 180 -11 290 -18z m-1168 -36 c6 -6 44 -11 86 -10 64 1 75
-2 79 -17 4 -15 -2 -18 -33 -19 -22 0 -37 3 -34 7 3 5 1 11 -5 15 -5 3 -10 -1
-10 -11 0 -13 -3 -14 -15 -4 -8 7 -15 8 -15 3 0 -5 -18 -10 -40 -11 -24 -1
-40 3 -40 9 0 8 -4 8 -13 0 -16 -12 -27 -5 -27 18 0 14 2 14 10 1 6 -10 10
-11 10 -2 0 6 7 12 16 12 8 0 12 5 9 10 -8 13 8 13 22 -1z"/>
<path d="M1960 1670 c0 -5 5 -10 10 -10 6 0 10 5 10 10 0 6 -4 10 -10 10 -5 0
-10 -4 -10 -10z"/>
<path d="M1445 2530 c3 -5 8 -10 11 -10 2 0 4 5 4 10 0 6 -5 10 -11 10 -5 0
-7 -4 -4 -10z"/>
<path d="M1575 2530 c3 -5 11 -10 16 -10 6 0 7 5 4 10 -3 6 -11 10 -16 10 -6
0 -7 -4 -4 -10z"/>
<path d="M1710 2530 c0 -5 5 -10 11 -10 5 0 7 5 4 10 -3 6 -8 10 -11 10 -2 0
-4 -4 -4 -10z"/>
<path d="M1838 2533 c7 -3 16 -2 19 1 4 3 -2 6 -13 5 -11 0 -14 -3 -6 -6z"/>
<path d="M1395 2510 c3 -5 8 -10 11 -10 2 0 4 5 4 10 0 6 -5 10 -11 10 -5 0
-7 -4 -4 -10z"/>
<path d="M1527 2509 c7 -7 15 -10 18 -7 3 3 -2 9 -12 12 -14 6 -15 5 -6 -5z"/>
<path d="M1655 2510 c3 -5 11 -10 16 -10 6 0 7 5 4 10 -3 6 -11 10 -16 10 -6
0 -7 -4 -4 -10z"/>
<path d="M1785 2510 c3 -5 10 -10 16 -10 5 0 9 5 9 10 0 6 -7 10 -16 10 -8 0
-12 -4 -9 -10z"/>
<path d="M1475 2490 c-3 -5 -1 -10 4 -10 6 0 11 5 11 10 0 6 -2 10 -4 10 -3 0
-8 -4 -11 -10z"/>
<path d="M1740 2490 c0 -5 5 -10 11 -10 5 0 7 5 4 10 -3 6 -8 10 -11 10 -2 0
-4 -4 -4 -10z"/>
<path d="M2548 2483 c7 -3 16 -2 19 1 4 3 -2 6 -13 5 -11 0 -14 -3 -6 -6z"/>
<path d="M1280 2476 c0 -2 7 -6 15 -10 8 -3 15 -1 15 4 0 6 -7 10 -15 10 -8 0
-15 -2 -15 -4z"/>
<path d="M1420 2470 c0 -5 5 -10 10 -10 6 0 10 5 10 10 0 6 -4 10 -10 10 -5 0
-10 -4 -10 -10z"/>
<path d="M765 2460 c3 -5 8 -10 11 -10 2 0 4 5 4 10 0 6 -5 10 -11 10 -5 0 -7
-4 -4 -10z"/>
<path d="M2370 2460 c0 -5 5 -10 11 -10 5 0 7 5 4 10 -3 6 -8 10 -11 10 -2 0
-4 -4 -4 -10z"/>
<path d="M2500 2460 c0 -5 5 -10 10 -10 6 0 10 5 10 10 0 6 -4 10 -10 10 -5 0
-10 -4 -10 -10z"/>
<path d="M2820 2450 c0 -5 5 -10 10 -10 6 0 10 5 10 10 0 6 -4 10 -10 10 -5 0
-10 -4 -10 -10z"/>
<path d="M2450 2440 c0 -5 5 -10 11 -10 5 0 7 5 4 10 -3 6 -8 10 -11 10 -2 0
-4 -4 -4 -10z"/>
<path d="M2575 2440 c3 -5 8 -10 11 -10 2 0 4 5 4 10 0 6 -5 10 -11 10 -5 0
-7 -4 -4 -10z"/>
<path d="M685 2430 c3 -5 8 -10 11 -10 2 0 4 5 4 10 0 6 -5 10 -11 10 -5 0 -7
-4 -4 -10z"/>
<path d="M2190 2430 c0 -5 5 -10 10 -10 6 0 10 5 10 10 0 6 -4 10 -10 10 -5 0
-10 -4 -10 -10z"/>
<path d="M2325 2430 c3 -5 8 -10 11 -10 2 0 4 5 4 10 0 6 -5 10 -11 10 -5 0
-7 -4 -4 -10z"/>
<path d="M2400 2420 c0 -5 5 -10 11 -10 5 0 7 5 4 10 -3 6 -8 10 -11 10 -2 0
-4 -4 -4 -10z"/>
<path d="M2530 2420 c0 -5 5 -10 11 -10 5 0 7 5 4 10 -3 6 -8 10 -11 10 -2 0
-4 -4 -4 -10z"/>
<path d="M2778 2423 c7 -3 16 -2 19 1 4 3 -2 6 -13 5 -11 0 -14 -3 -6 -6z"/>
<path d="M841 2391 c-41 -38 -43 -100 -6 -151 13 -18 22 -37 19 -41 -3 -5 -1
-9 5 -9 5 0 13 5 16 10 9 15 45 12 51 -5 4 -8 16 -15 27 -15 15 0 18 3 10 11
-13 13 35 67 55 61 6 -2 12 1 12 8 0 6 -4 8 -10 5 -5 -3 -10 -2 -10 4 0 6 -11
5 -29 -2 -41 -15 -85 5 -107 51 -15 33 -15 37 0 63 23 39 4 45 -33 10z"/>
<path d="M2270 2409 c0 -5 5 -7 10 -4 6 3 10 8 10 11 0 2 -4 4 -10 4 -5 0 -10
-5 -10 -11z"/>
<path d="M913 2380 c-9 -25 -10 -38 0 -54 6 -11 11 -25 12 -30 0 -5 6 -11 14
-14 8 -3 11 0 7 7 -7 10 11 16 41 12 21 -3 3 27 -19 32 -11 3 -17 10 -13 16 3
6 -1 11 -9 11 -8 0 -16 11 -18 26 -3 26 -3 26 -15 -6z"/>
<path d="M2610 2400 c0 -5 5 -10 11 -10 5 0 7 5 4 10 -3 6 -8 10 -11 10 -2 0
-4 -4 -4 -10z"/>
<path d="M580 2390 c0 -5 5 -10 10 -10 6 0 10 5 10 10 0 6 -4 10 -10 10 -5 0
-10 -4 -10 -10z"/>
<path d="M2220 2390 c0 -5 5 -10 10 -10 6 0 10 5 10 10 0 6 -4 10 -10 10 -5 0
-10 -4 -10 -10z"/>
<path d="M2095 2380 c3 -5 8 -10 11 -10 2 0 4 5 4 10 0 6 -5 10 -11 10 -5 0
-7 -4 -4 -10z"/>
<path d="M2680 2380 c0 -5 5 -10 10 -10 6 0 10 5 10 10 0 6 -4 10 -10 10 -5 0
-10 -4 -10 -10z"/>
<path d="M2808 2383 c7 -3 16 -2 19 1 4 3 -2 6 -13 5 -11 0 -14 -3 -6 -6z"/>
<path d="M675 2370 c3 -5 8 -10 11 -10 2 0 4 5 4 10 0 6 -5 10 -11 10 -5 0 -7
-4 -4 -10z"/>
<path d="M2300 2370 c0 -5 5 -10 10 -10 6 0 10 5 10 10 0 6 -4 10 -10 10 -5 0
-10 -4 -10 -10z"/>
<path d="M2430 2370 c0 -5 5 -10 10 -10 6 0 10 5 10 10 0 6 -4 10 -10 10 -5 0
-10 -4 -10 -10z"/>
<path d="M2045 2360 c-3 -5 1 -10 10 -10 9 0 13 5 10 10 -3 6 -8 10 -10 10 -2
0 -7 -4 -10 -10z"/>
<path d="M2175 2360 c3 -5 8 -10 11 -10 2 0 4 5 4 10 0 6 -5 10 -11 10 -5 0
-7 -4 -4 -10z"/>
<path d="M2760 2360 c0 -5 5 -10 10 -10 6 0 10 5 10 10 0 6 -4 10 -10 10 -5 0
-10 -4 -10 -10z"/>
<path d="M3005 2360 c3 -5 8 -10 11 -10 2 0 4 5 4 10 0 6 -5 10 -11 10 -5 0
-7 -4 -4 -10z"/>
<path d="M2385 2350 c3 -5 8 -10 11 -10 2 0 4 5 4 10 0 6 -5 10 -11 10 -5 0
-7 -4 -4 -10z"/>
<path d="M2515 2350 c3 -5 8 -10 11 -10 2 0 4 5 4 10 0 6 -5 10 -11 10 -5 0
-7 -4 -4 -10z"/>
<path d="M2638 2353 c7 -3 16 -2 19 1 4 3 -2 6 -13 5 -11 0 -14 -3 -6 -6z"/>
<path d="M2120 2340 c0 -5 5 -10 10 -10 6 0 10 5 10 10 0 6 -4 10 -10 10 -5 0
-10 -4 -10 -10z"/>
<path d="M2258 2343 c7 -3 16 -2 19 1 4 3 -2 6 -13 5 -11 0 -14 -3 -6 -6z"/>
<path d="M2590 2340 c0 -5 5 -10 11 -10 5 0 7 5 4 10 -3 6 -8 10 -11 10 -2 0
-4 -4 -4 -10z"/>
<path d="M2710 2340 c0 -5 7 -10 15 -10 8 0 15 5 15 10 0 6 -7 10 -15 10 -8 0
-15 -4 -15 -10z"/>
<path d="M2840 2339 c0 -5 5 -7 10 -4 6 3 10 8 10 11 0 2 -4 4 -10 4 -5 0 -10
-5 -10 -11z"/>
<path d="M2465 2330 c3 -5 8 -10 11 -10 2 0 4 5 4 10 0 6 -5 10 -11 10 -5 0
-7 -4 -4 -10z"/>
<path d="M1735 2320 c3 -5 8 -10 11 -10 2 0 4 5 4 10 0 6 -5 10 -11 10 -5 0
-7 -4 -4 -10z"/>
<path d="M2670 2320 c0 -5 5 -10 11 -10 5 0 7 5 4 10 -3 6 -8 10 -11 10 -2 0
-4 -4 -4 -10z"/>
<path d="M2790 2320 c0 -5 5 -10 10 -10 6 0 10 5 10 10 0 6 -4 10 -10 10 -5 0
-10 -4 -10 -10z"/>
<path d="M2915 2320 c3 -5 8 -10 11 -10 2 0 4 5 4 10 0 6 -5 10 -11 10 -5 0
-7 -4 -4 -10z"/>
<path d="M650 2310 c0 -5 5 -10 10 -10 6 0 10 5 10 10 0 6 -4 10 -10 10 -5 0
-10 -4 -10 -10z"/>
<path d="M2410 2310 c0 -5 5 -10 10 -10 6 0 10 5 10 10 0 6 -4 10 -10 10 -5 0
-10 -4 -10 -10z"/>
<path d="M1680 2299 c0 -5 5 -7 10 -4 6 3 10 8 10 11 0 2 -4 4 -10 4 -5 0 -10
-5 -10 -11z"/>
<path d="M2150 2300 c0 -5 5 -10 10 -10 6 0 10 5 10 10 0 6 -4 10 -10 10 -5 0
-10 -4 -10 -10z"/>
<path d="M2745 2300 c-3 -5 1 -10 10 -10 9 0 13 5 10 10 -3 6 -8 10 -10 10 -2
0 -7 -4 -10 -10z"/>
<path d="M1105 2290 c4 -6 11 -8 16 -5 14 9 11 15 -7 15 -8 0 -12 -5 -9 -10z"/>
<path d="M2025 2290 c3 -5 11 -10 16 -10 6 0 7 5 4 10 -3 6 -11 10 -16 10 -6
0 -7 -4 -4 -10z"/>
<path d="M2490 2290 c0 -5 5 -10 10 -10 6 0 10 5 10 10 0 6 -4 10 -10 10 -5 0
-10 -4 -10 -10z"/>
<path d="M2625 2290 c3 -5 8 -10 11 -10 2 0 4 5 4 10 0 6 -5 10 -11 10 -5 0
-7 -4 -4 -10z"/>
<path d="M1050 2280 c0 -6 7 -10 15 -10 8 0 15 2 15 4 0 2 -7 6 -15 10 -8 3
-15 1 -15 -4z"/>
<path d="M1755 2280 c3 -5 8 -10 11 -10 2 0 4 5 4 10 0 6 -5 10 -11 10 -5 0
-7 -4 -4 -10z"/>
<path d="M2235 2280 c3 -5 8 -10 11 -10 2 0 4 5 4 10 0 6 -5 10 -11 10 -5 0
-7 -4 -4 -10z"/>
<path d="M2368 2283 c7 -3 16 -2 19 1 4 3 -2 6 -13 5 -11 0 -14 -3 -6 -6z"/>
<path d="M2820 2280 c0 -5 5 -10 10 -10 6 0 10 5 10 10 0 6 -4 10 -10 10 -5 0
-10 -4 -10 -10z"/>
<path d="M2945 2280 c3 -5 8 -10 11 -10 2 0 4 5 4 10 0 6 -5 10 -11 10 -5 0
-7 -4 -4 -10z"/>
<path d="M2108 2273 c7 -3 16 -2 19 1 4 3 -2 6 -13 5 -11 0 -14 -3 -6 -6z"/>
<path d="M2575 2270 c3 -5 8 -10 11 -10 2 0 4 5 4 10 0 6 -5 10 -11 10 -5 0
-7 -4 -4 -10z"/>
<path d="M2185 2260 c-3 -5 -1 -10 4 -10 6 0 11 5 11 10 0 6 -2 10 -4 10 -3 0
-8 -4 -11 -10z"/>
<path d="M2310 2260 c0 -5 5 -10 10 -10 6 0 10 5 10 10 0 6 -4 10 -10 10 -5 0
-10 -4 -10 -10z"/>
<path d="M2900 2260 c0 -5 5 -10 11 -10 5 0 7 5 4 10 -3 6 -8 10 -11 10 -2 0
-4 -4 -4 -10z"/>
<path d="M635 2250 c-3 -5 -1 -10 4 -10 6 0 11 5 11 10 0 6 -2 10 -4 10 -3 0
-8 -4 -11 -10z"/>
<path d="M2050 2250 c0 -5 5 -10 10 -10 6 0 10 5 10 10 0 6 -4 10 -10 10 -5 0
-10 -4 -10 -10z"/>
<path d="M2520 2250 c0 -5 5 -10 10 -10 6 0 10 5 10 10 0 6 -4 10 -10 10 -5 0
-10 -4 -10 -10z"/>
<path d="M2650 2250 c0 -5 5 -10 10 -10 6 0 10 5 10 10 0 6 -4 10 -10 10 -5 0
-10 -4 -10 -10z"/>
<path d="M2265 2240 c3 -5 8 -10 11 -10 2 0 4 5 4 10 0 6 -5 10 -11 10 -5 0
-7 -4 -4 -10z"/>
<path d="M2855 2240 c3 -5 11 -10 16 -10 6 0 7 5 4 10 -3 6 -11 10 -16 10 -6
0 -7 -4 -4 -10z"/>
<path d="M4251 2224 c-23 -22 -23 -22 -5 -48 21 -27 40 -35 31 -12 -3 8 -2 16
3 18 5 2 6 17 2 34 l-7 31 -24 -23z"/>
<path d="M1078 2233 c6 -2 18 -2 25 0 6 3 1 5 -13 5 -14 0 -19 -2 -12 -5z"/>
<path d="M2470 2230 c0 -5 5 -10 11 -10 5 0 7 5 4 10 -3 6 -8 10 -11 10 -2 0
-4 -4 -4 -10z"/>
<path d="M2600 2230 c0 -5 5 -10 10 -10 6 0 10 5 10 10 0 6 -4 10 -10 10 -5 0
-10 -4 -10 -10z"/>
<path d="M1025 2220 c-3 -5 3 -10 15 -10 12 0 18 5 15 10 -3 6 -10 10 -15 10
-5 0 -12 -4 -15 -10z"/>
<path d="M1218 2223 c7 -3 16 -2 19 1 4 3 -2 6 -13 5 -11 0 -14 -3 -6 -6z"/>
<path d="M2340 2220 c0 -5 5 -10 10 -10 6 0 10 5 10 10 0 6 -4 10 -10 10 -5 0
-10 -4 -10 -10z"/>
<path d="M2930 2220 c0 -5 5 -10 10 -10 6 0 10 5 10 10 0 6 -4 10 -10 10 -5 0
-10 -4 -10 -10z"/>
<path d="M647 2209 c7 -7 15 -10 18 -7 3 3 -2 9 -12 12 -14 6 -15 5 -6 -5z"/>
<path d="M2080 2210 c0 -5 5 -10 10 -10 6 0 10 5 10 10 0 6 -4 10 -10 10 -5 0
-10 -4 -10 -10z"/>
<path d="M2218 2213 c7 -3 16 -2 19 1 4 3 -2 6 -13 5 -11 0 -14 -3 -6 -6z"/>
<path d="M2550 2210 c0 -5 5 -10 11 -10 5 0 7 5 4 10 -3 6 -8 10 -11 10 -2 0
-4 -4 -4 -10z"/>
<path d="M2680 2210 c0 -5 5 -10 10 -10 6 0 10 5 10 10 0 6 -4 10 -10 10 -5 0
-10 -4 -10 -10z"/>
<path d="M2808 2213 c7 -3 16 -2 19 1 4 3 -2 6 -13 5 -11 0 -14 -3 -6 -6z"/>
<path d="M1295 2200 c3 -5 11 -10 16 -10 6 0 7 5 4 10 -3 6 -11 10 -16 10 -6
0 -7 -4 -4 -10z"/>
<path d="M1516 2197 c3 -10 9 -15 12 -12 3 3 0 11 -7 18 -10 9 -11 8 -5 -6z"/>
<path d="M2290 2200 c0 -6 7 -10 15 -10 8 0 15 2 15 4 0 2 -7 6 -15 10 -8 3
-15 1 -15 -4z"/>
<path d="M2425 2200 c4 -6 11 -8 16 -5 14 9 11 15 -7 15 -8 0 -12 -5 -9 -10z"/>
<path d="M2890 2200 c0 -5 5 -10 11 -10 5 0 7 5 4 10 -3 6 -8 10 -11 10 -2 0
-4 -4 -4 -10z"/>
<path d="M605 2190 c-3 -6 1 -7 9 -4 18 7 21 14 7 14 -6 0 -13 -4 -16 -10z"/>
<path d="M1110 2192 c0 -5 7 -13 16 -16 10 -4 14 -1 12 6 -5 15 -28 23 -28 10z"/>
<path d="M2165 2190 c3 -5 8 -10 11 -10 2 0 4 5 4 10 0 6 -5 10 -11 10 -5 0
-7 -4 -4 -10z"/>
<path d="M2760 2190 c0 -5 5 -10 10 -10 6 0 10 5 10 10 0 6 -4 10 -10 10 -5 0
-10 -4 -10 -10z"/>
<path d="M3090 2190 c0 -5 5 -10 11 -10 5 0 7 5 4 10 -3 6 -8 10 -11 10 -2 0
-4 -4 -4 -10z"/>
<path d="M1245 2180 c3 -5 10 -10 16 -10 5 0 9 5 9 10 0 6 -7 10 -16 10 -8 0
-12 -4 -9 -10z"/>
<path d="M2375 2180 c3 -5 11 -10 16 -10 6 0 7 5 4 10 -3 6 -11 10 -16 10 -6
0 -7 -4 -4 -10z"/>
<path d="M2508 2183 c7 -3 16 -2 19 1 4 3 -2 6 -13 5 -11 0 -14 -3 -6 -6z"/>
<path d="M2965 2180 c4 -6 11 -8 16 -5 14 9 11 15 -7 15 -8 0 -12 -5 -9 -10z"/>
<path d="M4196 2171 c-16 -18 -16 -19 9 -25 43 -11 62 14 26 33 -14 8 -22 6
-35 -8z m44 -6 c0 -2 -7 -5 -15 -9 -9 -3 -15 0 -15 9 0 9 6 12 15 9 8 -4 15
-7 15 -9z"/>
<path d="M1063 2165 c0 -10 6 -14 14 -10 8 3 17 5 19 5 2 0 4 5 4 10 0 6 -8
10 -18 10 -10 0 -19 -7 -19 -15z"/>
<path d="M2110 2170 c0 -5 5 -10 10 -10 6 0 10 5 10 10 0 6 -4 10 -10 10 -5 0
-10 -4 -10 -10z"/>
<path d="M2248 2173 c7 -3 16 -2 19 1 4 3 -2 6 -13 5 -11 0 -14 -3 -6 -6z"/>
<path d="M2710 2170 c0 -5 5 -10 10 -10 6 0 10 5 10 10 0 6 -4 10 -10 10 -5 0
-10 -4 -10 -10z"/>
<path d="M1195 2160 c4 -6 11 -8 16 -5 14 9 11 15 -7 15 -8 0 -12 -5 -9 -10z"/>
<path d="M2455 2160 c3 -5 10 -10 16 -10 5 0 9 5 9 10 0 6 -7 10 -16 10 -8 0
-12 -4 -9 -10z"/>
<path d="M2920 2160 c0 -5 5 -10 10 -10 6 0 10 5 10 10 0 6 -4 10 -10 10 -5 0
-10 -4 -10 -10z"/>
<path d="M1146 2153 c-11 -11 -6 -23 9 -23 8 0 15 4 15 9 0 13 -16 22 -24 14z"/>
<path d="M2195 2150 c3 -5 8 -10 11 -10 2 0 4 5 4 10 0 6 -5 10 -11 10 -5 0
-7 -4 -4 -10z"/>
<path d="M2328 2153 c7 -3 16 -2 19 1 4 3 -2 6 -13 5 -11 0 -14 -3 -6 -6z"/>
<path d="M2665 2150 c-3 -5 1 -10 10 -10 9 0 13 5 10 10 -3 6 -8 10 -10 10 -2
0 -7 -4 -10 -10z"/>
<path d="M2795 2150 c3 -5 8 -10 11 -10 2 0 4 5 4 10 0 6 -5 10 -11 10 -5 0
-7 -4 -4 -10z"/>
<path d="M1277 2136 c-4 -10 1 -12 14 -9 23 6 24 9 5 16 -8 3 -17 0 -19 -7z"/>
<path d="M2405 2140 c-3 -5 -1 -10 4 -10 6 0 11 5 11 10 0 6 -2 10 -4 10 -3 0
-8 -4 -11 -10z"/>
<path d="M2535 2140 c3 -5 11 -10 16 -10 6 0 7 5 4 10 -3 6 -11 10 -16 10 -6
0 -7 -4 -4 -10z"/>
<path d="M3000 2139 c0 -5 5 -7 10 -4 6 3 10 8 10 11 0 2 -4 4 -10 4 -5 0 -10
-5 -10 -11z"/>
<path d="M1084 2129 c-3 -6 -15 -9 -25 -6 -21 6 -23 -1 -10 -21 7 -11 11 -11
24 2 8 9 23 16 31 16 9 0 16 5 16 10 0 13 -27 13 -36 -1z"/>
<path d="M1418 2133 c7 -3 16 -2 19 1 4 3 -2 6 -13 5 -11 0 -14 -3 -6 -6z"/>
<path d="M2745 2130 c3 -5 11 -10 16 -10 6 0 7 5 4 10 -3 6 -11 10 -16 10 -6
0 -7 -4 -4 -10z"/>
<path d="M1230 2120 c0 -6 7 -10 15 -10 8 0 15 2 15 4 0 2 -7 6 -15 10 -8 3
-15 1 -15 -4z"/>
<path d="M1355 2120 c3 -5 14 -10 23 -10 15 0 15 2 2 10 -20 13 -33 13 -25 0z"/>
<path d="M2480 2120 c0 -5 7 -10 16 -10 8 0 12 5 9 10 -3 6 -10 10 -16 10 -5
0 -9 -4 -9 -10z"/>
<path d="M2615 2120 c4 -6 11 -8 16 -5 14 9 11 15 -7 15 -8 0 -12 -5 -9 -10z"/>
<path d="M2950 2120 c0 -5 5 -10 10 -10 6 0 10 5 10 10 0 6 -4 10 -10 10 -5 0
-10 -4 -10 -10z"/>
<path d="M2825 2110 c3 -5 11 -10 16 -10 6 0 7 5 4 10 -3 6 -11 10 -16 10 -6
0 -7 -4 -4 -10z"/>
<path d="M1170 2104 c0 -3 7 -12 15 -20 13 -14 15 -13 15 5 0 12 -6 21 -15 21
-8 0 -15 -3 -15 -6z"/>
<path d="M1310 2100 c0 -5 7 -10 16 -10 8 0 12 5 9 10 -3 6 -10 10 -16 10 -5
0 -9 -4 -9 -10z"/>
<path d="M2570 2100 c0 -5 5 -10 10 -10 6 0 10 5 10 10 0 6 -4 10 -10 10 -5 0
-10 -4 -10 -10z"/>
<path d="M2698 2103 c7 -3 16 -2 19 1 4 3 -2 6 -13 5 -11 0 -14 -3 -6 -6z"/>
<path d="M1448 2093 c7 -3 16 -2 19 1 4 3 -2 6 -13 5 -11 0 -14 -3 -6 -6z"/>
<path d="M2770 2090 c0 -5 7 -10 16 -10 8 0 12 5 9 10 -3 6 -10 10 -16 10 -5
0 -9 -4 -9 -10z"/>
<path d="M2908 2093 c7 -3 16 -2 19 1 4 3 -2 6 -13 5 -11 0 -14 -3 -6 -6z"/>
<path d="M782 2070 c9 -13 16 -16 23 -9 7 7 5 13 -5 19 -24 15 -31 11 -18 -10z"/>
<path d="M1133 2072 c10 -10 17 -24 17 -30 0 -15 36 -16 45 -2 4 6 15 8 26 5
10 -4 19 -2 19 4 0 17 -20 23 -35 11 -18 -15 -45 -6 -45 15 0 9 -9 15 -22 15
-20 0 -20 -1 -5 -18z"/>
<path d="M1259 2080 c-19 -12 -6 -22 25 -18 25 3 25 4 8 15 -11 6 -24 8 -33 3z"/>
<path d="M2650 2080 c0 -5 5 -10 10 -10 6 0 10 5 10 10 0 6 -4 10 -10 10 -5 0
-10 -4 -10 -10z"/>
<path d="M2990 2079 c0 -5 5 -7 10 -4 6 3 10 8 10 11 0 2 -4 4 -10 4 -5 0 -10
-5 -10 -11z"/>
<path d="M1350 2065 c-11 -13 -9 -20 10 -40 24 -26 55 -34 48 -13 -3 7 -15 15
-29 19 -20 6 -21 7 -4 8 19 2 19 2 2 12 -9 6 -15 14 -12 20 10 15 -1 10 -15
-6z"/>
<path d="M1392 2068 c6 -18 28 -21 28 -4 0 9 -7 16 -16 16 -9 0 -14 -5 -12
-12z"/>
<path d="M1528 2073 c7 -3 16 -2 19 1 4 3 -2 6 -13 5 -11 0 -14 -3 -6 -6z"/>
<path d="M2860 2070 c0 -5 5 -10 10 -10 6 0 10 5 10 10 0 6 -4 10 -10 10 -5 0
-10 -4 -10 -10z"/>
<path d="M2728 2063 c7 -3 16 -2 19 1 4 3 -2 6 -13 5 -11 0 -14 -3 -6 -6z"/>
<path d="M1475 2050 c3 -5 10 -10 16 -10 5 0 9 5 9 10 0 6 -7 10 -16 10 -8 0
-12 -4 -9 -10z"/>
<path d="M2810 2050 c0 -5 5 -10 10 -10 6 0 10 5 10 10 0 6 -4 10 -10 10 -5 0
-10 -4 -10 -10z"/>
<path d="M1565 2030 c4 -6 11 -8 16 -5 14 9 11 15 -7 15 -8 0 -12 -5 -9 -10z"/>
<path d="M1511 2014 c6 -7 16 -11 21 -8 11 7 3 17 -18 20 -12 2 -13 -1 -3 -12z"/>
<path d="M2400 1970 c0 -5 5 -10 11 -10 5 0 7 5 4 10 -3 6 -8 10 -11 10 -2 0
-4 -4 -4 -10z"/>
</g>
</svg>
